# AST/ASF file generated using VICON BodyLanguage
# -----------------------------------------------
:version 1.10
:name VICON
:units
  mass 1.0
  length 0.45
  angle deg
:documentation
   .ast/.asf automatically generated from VICON data using
   VICON BodyBuilder and BodyLanguage model FoxedUp or BRILLIANT.MOD
:root
   order TX TY TZ RX RY RZ
   axis XYZ
   position 0 0 0  
   orientation 0 0 0 
:bonedata
  begin
     id 1 
     name lhipjoint
     direction 0.682418 -0.694059 0.22932 
     length 2.25561 
     axis 0 0 0  XYZ
  end
  begin
     id 2 
     name lfemur
     direction 0.34202 -0.939693 0  
     length 6.96448  
     axis 0 0 20  XYZ
    dof rx ry rz
    limits (-160.0 20.0)
           (-70.0 70.0)
           (-60.0 70.0)
  end
  begin
     id 3 
     name ltibia
     direction 0.34202 -0.939693 0   
     length 6.88553   
     axis 0 0 20   XYZ
    dof rx
    limits (-10.0 170.0)
  end
  begin
     id 4 
     name lfoot
     direction 0.0723587 -0.198804 0.977364   
     length 1.88518   
     axis -90 7.62852e-016 20   XYZ
    dof rx rz
    limits (-45.0 90.0)
           (-70.0 20.0)
  end
  begin
     id 5 
     name ltoes
     direction 1.53558e-011 -4.21962e-011 1   
     length 0.952124   
     axis -90 7.62852e-016 20   XYZ
    dof rx
    limits (-90.0 20.0)
  end
  begin
     id 6 
     name rhipjoint
     direction -0.657603 -0.71533 0.236348   
     length 2.18854  
     axis 0 0 0  XYZ 
  end
  begin
     id 7 
     name rfemur
     direction -0.34202 -0.939693 0   
     length 6.86686   
     axis 0 0 -20   XYZ
    dof rx ry rz
    limits (-160.0 20.0)
           (-70.0 70.0)
           (-70.0 60.0)
  end
  begin
     id 8 
     name rtibia
     direction -0.34202 -0.939693 0   
     length 6.59503   
     axis 0 0 -20   XYZ
    dof rx
    limits (-10.0 170.0)
 end
 begin
     id 9 
     name rfoot
     direction -0.101977 -0.280179 0.954516   
     length 1.93723  
     axis -90 -7.62852e-016 -20   XYZ
    dof rx rz
    limits (-45.0 90.0)
           (-20.0 70.0)
  end
  begin
     id 10 
     name rtoes
     direction -1.53564e-011 -4.21897e-011 1   
     length 0.970315   
     axis -90 -7.62852e-016 -20   XYZ
    dof rx
    limits (-90.0 20.0)
  end
  begin
     id 11 
     name lowerback
     direction -0.0339559 0.999421 -0.00235966   
     length 1.88543   
     axis 0 0 0   XYZ
    dof rx ry rz
    limits (-20.0 45.0)
           (-30.0 30.0)
           (-30.0 30.0)
  end
  begin
     id 12 
     name upperback
     direction 0.00401003 0.999739 0.0224689   
     length 1.8856   
     axis 0 0 0   XYZ
    dof rx ry rz
    limits (-20.0 45.0)
           (-30.0 30.0)
           (-30.0 30.0)
  end
  begin
     id 13 
     name thorax
     direction 0.0198619 0.999546 0.0226536   
     length 1.88352   
     axis 0 0 0   XYZ
    dof rx ry rz
    limits (-20.0 45.0)
           (-30.0 30.0)
           (-30.0 30.0)
  end
  begin
     id 14 
     name lowerneck
     direction -0.0461848 0.998632 0.0245198   
     length 1.34895   
     axis 0 0 0   XYZ
    dof rx ry rz
    limits (-20.0 45.0)
           (-30.0 30.0)
           (-30.0 30.0)
  end
  begin
     id 15 
     name upperneck
     direction -0.0180627 0.994724 -0.100984   
     length 1.35214   
     axis 0 0 0   XYZ
    dof rx ry rz
    limits (-20.0 45.0)
           (-30.0 30.0)
           (-30.0 30.0)
  end
  begin
     id 16
     name head
     direction -0.00374772 0.999293 -0.037403  
     length 1.3568  
     axis 0 0 0   XYZ
    dof rx ry rz
    limits (-20.0 45.0)
           (-30.0 30.0)
           (-30.0 30.0)
  end
  begin
     id 17 
     name lclavicle
     direction 0.971773 0.191119 0.138311  
     length 2.84954  
     axis 0 0 0   XYZ
    dof ry rz
    limits (-20.0 10.0)
           (0.0 20.0)
  end
  begin
     id 18 
     name lhumerus
     direction 1 -4.4897e-011 -2.43761e-027   
     length 4.40919   
     axis 180 -30 -90   XYZ
    dof rx ry rz
    limits (-60.0 90.0)
           (-90.0 90.0)
           (-90.0 90.0)
  end
  begin
     id 19
     name lradius
     direction 1 -4.4896e-011 -9.1621e-027   
     length 3.03857   
     axis 180 -30 -90   XYZ
    dof rx
    limits (-10.0 170.0)
  end
  begin
     id 20
     name lwrist
     direction 1 -4.4896e-011 -1.41363e-026   
     length 1.51928   
     axis 1.07133e-014 90 90   XYZ
    dof ry
    limits (-180.0 0.0)
 end
  begin
     id 21 
     name lhand
     direction 1 -4.48978e-011 -2.82725e-026   
     length 0.523208   
     axis 1.80403e-014 90 90   XYZ
    dof rx rz
    limits (-90.0 90.0)
           (-45.0 45.0)
  end
  begin
     id 22 
     name lfingers
     direction 1 -4.48977e-011 -5.6545e-026   
     length 0.421824   
     axis 3.60806e-014 90 90   XYZ
    dof rx
    limits (0.0 90.0)
  end
  begin
     id 23
     name lthumb
     direction 0.707107 -6.34962e-011 0.707107   
     length 0.605657   
     axis -90 45 2.85299e-015   XYZ
    dof rx rz
    limits (-45.0 45.0)
           (-45.0 45.0)
  end
  begin
     id 24 
     name rclavicle
     direction -0.957247 0.24311 0.156766   
     length 3.12406  
     axis 0 0 0   XYZ 
    dof ry rz
    limits (-10.0 20.0)
           (-20.0 0.0)
  end
  begin
     id 25 
     name rhumerus
     direction -1 -4.48964e-011 -1.70632e-027  
     length 4.61969   
     axis 180 30 90   XYZ
    dof rx ry rz
    limits (-90.0 60.0)
           (-90.0 90.0)
           (-90.0 90.0)
  end
  begin
     id 26 
     name rradius
     direction -1 -4.48966e-011 -6.60395e-027   
     length 3.09382   
     axis 180 30 90   XYZ
    dof rx
    limits (-10.0 170.0)
  end
  begin
     id 27 
     name rwrist
     direction -1 -4.48963e-011 -1.41363e-026   
     length 1.54691   
     axis 1.07133e-014 -90 -90   XYZ
    dof ry
    limits (-180.0 0.0)
  end
  begin
     id 28
     name rhand
     direction -1 -4.49013e-011 -2.82725e-026   
     length 0.500896   
     axis 1.80403e-014 -90 -90   XYZ
    dof rx rz
    limits (-90.0 90.0)
           (-45.0 45.0)
  end
  begin
     id 29
     name rfingers
     direction -1 -4.48902e-011 -5.6545e-026   
     length 0.403835   
     axis 3.60806e-014 -90 -90   XYZ
    dof rx
    limits (0.0 90.0)
  end
  begin
     id 30
     name rthumb
     direction -0.707107 -6.34953e-011 0.707107   
     length 0.579829   
     axis -90 -45 -2.85299e-015   XYZ
    dof rx rz
    limits (-45.0 45.0)
           (-45.0 45.0)
  end
:hierarchy
  begin
    root lhipjoint rhipjoint lowerback
    lhipjoint lfemur
    lfemur ltibia
    ltibia lfoot
    lfoot ltoes
    rhipjoint rfemur
    rfemur rtibia
    rtibia rfoot
    rfoot rtoes
    lowerback upperback
    upperback thorax
    thorax lowerneck lclavicle rclavicle
    lowerneck upperneck
    upperneck head
    lclavicle lhumerus
    lhumerus lradius
    lradius lwrist
    lwrist lhand lthumb
    lhand lfingers
    rclavicle rhumerus
    rhumerus rradius
    rradius rwrist
    rwrist rhand rthumb
    rhand rfingers
  end

#!OML:ASF E:\madness\Project 1\Capture day 1\Session 1\Female1.ASF
:FULLY-SPECIFIED
:DEGREES
486
root 20.2482 15.5329 -2.94062 213.115 -82.3615 -195.371
lowerback 29.3036 5.09727 -6.10283
upperback 10.4875 3.37693 -3.1162
thorax -4.44411 1.12233 -1.00915
lowerneck -5.40474 8.96727 -0.489857
upperneck 5.76518 13.0001 -14.4381
head 3.56325 5.86668 -3.60959
rclavicle -1.88845e-014 1.53064e-014
rhumerus -23.4734 33.0294 -87.0635
rradius 81.1552
rwrist 2.81675
rhand -11.2006 -37.9629
rfingers 7.12502
rthumb 14.8273 -67.4124
lclavicle -1.88845e-014 1.53064e-014
lhumerus -54.231 0.116383 68.8578
lradius 67.5597
lwrist -4.25213
lhand -46.3979 -10.0072
lfingers 7.12502
lthumb -19.1284 19.0721
rfemur -41.6094 8.34382 19.7341
rtibia 42.8092
rfoot -17.5828 -2.54458
rtoes 14.3801
lfemur -41.4382 -17.0398 8.03947
ltibia 41.4784
lfoot 2.94698 9.92164
ltoes -13.5391
487
root 20.2587 15.5324 -2.98057 212.198 -82.1204 -194.446
lowerback 29.5266 5.46745 -6.08959
upperback 10.5257 3.78131 -3.36167
thorax -4.49282 1.31356 -1.43379
lowerneck -5.78777 9.17951 0.324795
upperneck 6.36496 13.3535 -14.6705
head 3.90388 5.99905 -3.74628
rclavicle 7.49418e-014 -1.96797e-014
rhumerus -24.3016 31.0803 -87.0804
rradius 81.5656
rwrist 3.22392
rhand -11.2151 -38.2217
rfingers 7.12502
rthumb 14.8133 -67.6722
lclavicle 7.49418e-014 -1.96797e-014
lhumerus -54.3058 -0.260429 68.3769
lradius 66.8807
lwrist -4.15385
lhand -46.8437 -10.4364
lfingers 7.12502
lthumb -19.557 18.5999
rfemur -41.6298 8.67232 19.8798
rtibia 42.7685
rfoot -17.5153 -2.60466
rtoes 14.5588
lfemur -41.4834 -16.8489 8.20734
ltibia 41.8671
lfoot 3.14806 9.33714
ltoes -14.1891
488
root 20.2666 15.5318 -3.02467 210.374 -81.7729 -192.623
lowerback 29.739 6.15103 -5.53818
upperback 10.4869 4.70118 -3.90062
thorax -4.55556 1.77174 -2.6652
lowerneck -5.43892 8.81965 2.30312
upperneck 6.45977 12.7648 -15.0618
head 3.97553 5.75652 -4.22441
rclavicle 3.926e-014 -1.90833e-014
rhumerus -25.7139 27.4816 -87.6105
rradius 82.0715
rwrist 3.76911
rhand -11.4018 -38.7449
rfingers 7.12502
rthumb 14.6334 -68.2086
lclavicle 3.926e-014 -1.90833e-014
lhumerus -53.7579 -2.34162 67.6786
lradius 65.9307
lwrist -3.79357
lhand -47.5704 -11.458
lfingers 7.12502
lthumb -20.2555 17.5058
rfemur -41.6072 9.09822 20.1316
rtibia 42.6704
rfoot -17.4188 -2.5904
rtoes 14.6978
lfemur -41.4892 -16.3608 8.35497
ltibia 42.4283
lfoot 3.40431 9.01574
ltoes -15.7197
489
root 20.2754 15.5301 -3.06084 209.556 -81.6879 -191.796
lowerback 29.8213 6.24347 -5.59018
upperback 10.5001 4.77014 -4.04846
thorax -4.56686 1.80216 -2.82931
lowerneck -4.90907 8.96016 2.80718
upperneck 6.08605 12.8854 -15.3237
head 3.83413 5.86478 -4.40101
rclavicle -1.33186e-014 -1.17283e-014
rhumerus -26.6272 26.2681 -87.6242
rradius 82.4649
rwrist 3.94525
rhand -11.7346 -39.0561
rfingers 7.12502
rthumb 14.3128 -68.5428
lclavicle -1.33186e-014 -1.17283e-014
lhumerus -54.0394 -2.17745 67.0818
lradius 65.2053
lwrist -3.50332
lhand -47.7717 -11.1323
lfingers 7.12502
lthumb -20.449 17.8109
rfemur -41.5675 9.23164 20.3673
rtibia 42.5289
rfoot -17.3361 -2.57386
rtoes 14.889
lfemur -41.8854 -16.0398 8.59958
ltibia 43.1336
lfoot 3.7073 8.81492
ltoes -15.5921
490
root 20.2863 15.5312 -3.0944 210.005 -81.9133 -192.235
lowerback 29.8876 5.95966 -6.00918
upperback 10.7153 4.28687 -3.9258
thorax -4.39604 1.5454 -2.2902
lowerneck -5.112 9.49974 2.19449
upperneck 5.65669 13.619 -15.4048
head 3.77473 6.22775 -4.27091
rclavicle -2.76311e-014 -6.20208e-014
rhumerus -26.6371 26.5175 -86.956
rradius 82.5758
rwrist 3.72972
rhand -11.7935 -39.1818
rfingers 7.12502
rthumb 14.256 -68.6725
lclavicle -2.76311e-014 -6.20208e-014
lhumerus -54.3124 -0.144915 66.7104
lradius 64.4406
lwrist -3.72927
lhand -47.7723 -10.6903
lfingers 7.12502
lthumb -20.4496 18.2528
rfemur -41.4704 9.14314 20.5405
rtibia 42.333
rfoot -17.2914 -2.66174
rtoes 15.3042
lfemur -42.5812 -15.9788 8.88456
ltibia 43.923
lfoot 4.38174 8.43258
ltoes -13.9408
491
root 20.2889 15.5416 -3.13498 210.287 -82.1376 -192.599
lowerback 29.9623 5.95754 -6.04159
upperback 10.8822 4.2526 -3.94849
thorax -4.24067 1.51796 -2.28366
lowerneck -5.34719 9.7221 2.04217
upperneck 5.69389 13.9336 -15.2276
head 3.83039 6.37682 -4.15735
rclavicle 3.00165e-014 -2.18663e-014
rhumerus -27.1311 25.4549 -86.4517
rradius 82.6894
rwrist 3.70376
rhand -11.8124 -39.1388
rfingers 7.12502
rthumb 14.2378 -68.6308
lclavicle 3.00165e-014 -2.18663e-014
lhumerus -54.1534 0.385721 66.3834
lradius 63.5729
lwrist -3.77225
lhand -47.9181 -11.1748
lfingers 7.12502
lthumb -20.5897 17.7532
rfemur -41.2121 9.14651 20.7365
rtibia 42.1145
rfoot -17.265 -2.84617
rtoes 15.5508
lfemur -43.1564 -15.9576 9.10099
ltibia 44.7521
lfoot 5.33767 7.46824
ltoes -12.5628
492
root 20.2929 15.555 -3.17512 210.223 -82.291 -192.628
lowerback 29.9974 6.05761 -6.05863
upperback 11.0117 4.35497 -3.98982
thorax -4.10672 1.55928 -2.35131
lowerneck -5.30026 9.84901 2.25576
upperneck 5.71414 14.1039 -15.3342
head 3.86677 6.46415 -4.2093
rclavicle 6.4605e-014 -9.49197e-014
rhumerus -27.8745 24.035 -86.0033
rradius 82.9054
rwrist 3.83434
rhand -11.9336 -38.9232
rfingers 7.12502
rthumb 14.121 -68.4234
lclavicle 6.4605e-014 -9.49197e-014
lhumerus -53.8104 0.682502 66.0755
lradius 62.4796
lwrist -3.86911
lhand -48.1833 -12.1919
lfingers 7.12502
lthumb -20.8445 16.7083
rfemur -40.9805 9.23742 20.9315
rtibia 41.9287
rfoot -17.2287 -3.08758
rtoes 15.5204
lfemur -43.7547 -15.9072 9.33456
ltibia 45.5709
lfoot 6.19711 6.40267
ltoes -11.1739
493
root 20.3085 15.5574 -3.2096 210.272 -82.5276 -192.58
lowerback 30.1496 6.09365 -5.87184
upperback 10.9729 4.42327 -4.12599
thorax -4.19467 1.60104 -2.64304
lowerneck -5.02435 9.95557 2.84109
upperneck 5.63175 14.2267 -15.7301
head 3.87843 6.54103 -4.42083
rclavicle 3.35946e-014 2.61402e-014
rhumerus -28.7375 22.5052 -85.7005
rradius 82.9969
rwrist 3.78167
rhand -12.2792 -38.6457
rfingers 7.12502
rthumb 13.7879 -68.1688
lclavicle 3.35946e-014 2.61402e-014
lhumerus -53.4641 0.651502 65.6811
lradius 61.6419
lwrist -3.75836
lhand -48.4468 -12.0171
lfingers 7.12502
lthumb -21.0976 16.8551
rfemur -41.0597 9.24884 21.1368
rtibia 41.8295
rfoot -17.1408 -3.31306
rtoes 15.6553
lfemur -44.7408 -15.7583 9.75096
ltibia 46.4028
lfoot 7.08622 5.27858
ltoes -9.67103
494
root 20.3242 15.5532 -3.23508 212.242 -83.2365 -194.401
lowerback 30.3717 5.8936 -5.22398
upperback 10.8972 4.32852 -4.31114
thorax -4.32234 1.5814 -3.20111
lowerneck -5.23274 9.96232 3.37185
upperneck 5.96312 14.2536 -15.7553
head 4.05488 6.53801 -4.48946
rclavicle -4.49253e-014 -7.91163e-014
rhumerus -29.6518 20.8463 -85.3802
rradius 82.904
rwrist 3.58866
rhand -12.7241 -38.4334
rfingers 7.12502
rthumb 13.3592 -67.9852
lclavicle -4.49253e-014 -7.91163e-014
lhumerus -53.1233 0.0764449 65.2961
lradius 61.2638
lwrist -3.29701
lhand -48.4531 -10.5968
lfingers 7.12502
lthumb -21.1037 18.2748
rfemur -41.2134 8.81559 21.3284
rtibia 41.7832
rfoot -17.091 -3.63497
rtoes 15.5993
lfemur -46.248 -15.8339 10.2598
ltibia 47.2556
lfoot 8.12975 3.73553
ltoes -8.89773
495
root 20.3375 15.5491 -3.24607 218.299 -84.5237 -200.335
lowerback 30.465 5.2824 -4.26893
upperback 10.9411 3.84519 -4.37467
thorax -4.26161 1.38002 -3.65406
lowerneck -5.54177 10.0705 3.53045
upperneck 6.37823 14.4405 -15.644
head 4.25315 6.60181 -4.44059
rclavicle -5.66536e-014 6.13251e-014
rhumerus -30.3193 19.5958 -84.7642
rradius 82.6649
rwrist 3.33152
rhand -12.6644 -38.7331
rfingers 7.12502
rthumb 13.4167 -68.281
lclavicle -5.66536e-014 6.13251e-014
lhumerus -52.6969 0.174891 65.1199
lradius 60.7186
lwrist -3.10168
lhand -48.5106 -10.3492
lfingers 7.12502
lthumb -21.159 18.5161
rfemur -41.3509 7.82104 21.4639
rtibia 41.7997
rfoot -17.1383 -4.04188
rtoes 15.7799
lfemur -48.2639 -16.3296 10.7745
ltibia 48.1657
lfoot 9.15998 2.16825
ltoes -8.37453
496
root 20.3433 15.5556 -3.28423 219.746 -84.9791 -201.822
lowerback 30.3871 5.29487 -4.20728
upperback 11.0148 3.89979 -4.27622
thorax -4.14482 1.40728 -3.58876
lowerneck -5.47369 10.1382 3.71654
upperneck 6.50992 14.5397 -15.6866
head 4.30781 6.65 -4.47391
rclavicle -5.60573e-014 -3.16068e-014
rhumerus -30.9649 18.3965 -84.0107
rradius 82.3896
rwrist 3.03718
rhand -12.7459 -38.8096
rfingers 7.12502
rthumb 13.3381 -68.3627
lclavicle -5.60573e-014 -3.16068e-014
lhumerus -52.449 0.215489 65.1047
lradius 60.3868
lwrist -2.66227
lhand -48.571 -10.1826
lfingers 7.12502
lthumb -21.217 18.6763
rfemur -41.2116 7.75649 21.699
rtibia 41.7378
rfoot -17.1878 -4.37719
rtoes 16.1252
lfemur -49.3494 -16.325 11.1134
ltibia 49.1333
lfoot 9.8341 1.24673
ltoes -7.23055
497
root 20.3481 15.5608 -3.31661 222.216 -85.4007 -204.343
lowerback 30.3331 5.31754 -4.00548
upperback 11.0676 3.99551 -4.27714
thorax -4.04375 1.46062 -3.73015
lowerneck -5.13621 10.0693 4.18596
upperneck 6.40971 14.4064 -15.777
head 4.24697 6.61485 -4.60313
rclavicle -2.50469e-014 1.5704e-014
rhumerus -31.8069 16.7724 -83.359
rradius 82.2295
rwrist 3.06543
rhand -13.0971 -38.45
rfingers 7.12502
rthumb 12.9995 -68.025
lclavicle -2.50469e-014 1.5704e-014
lhumerus -52.0519 -0.0840549 65.088
lradius 60.3316
lwrist -2.03322
lhand -48.2797 -8.87684
lfingers 7.12502
lthumb -20.9371 20.0132
rfemur -41.0402 7.61601 21.8529
rtibia 41.5865
rfoot -17.2353 -4.66389
rtoes 16.3703
lfemur -50.4805 -16.4028 11.3996
ltibia 50.1745
lfoot 10.4408 0.393316
ltoes -5.47223
498
root 20.3497 15.5694 -3.34666 224.181 -85.8555 -206.518
lowerback 30.4396 5.29915 -3.5699
upperback 11.1391 4.0763 -4.3733
thorax -3.96936 1.51146 -4.11589
lowerneck -4.96947 10.0198 4.72455
upperneck 6.45326 14.2987 -15.6551
head 4.24838 6.58753 -4.66545
rclavicle -6.47044e-014 5.98839e-014
rhumerus -32.6337 15.0229 -82.8897
rradius 82.0118
rwrist 3.32864
rhand -13.3638 -38.3286
rfingers 7.12502
rthumb 12.7425 -67.9197
lclavicle -6.47044e-014 5.98839e-014
lhumerus -51.5038 -0.524617 64.923
lradius 60.4017
lwrist -1.25034
lhand -48.052 -8.58734
lfingers 7.12502
lthumb -20.7183 20.3267
rfemur -40.6039 7.40818 22.1234
rtibia 41.2754
rfoot -17.2201 -4.83764
rtoes 17.0083
lfemur -51.4221 -16.492 11.6433
ltibia 51.2303
lfoot 10.9482 -0.540906
ltoes -4.33379
499
root 20.3554 15.5775 -3.37667 224.916 -86.2634 -207.356
lowerback 30.444 5.24931 -3.31784
upperback 11.1121 4.08889 -4.41042
thorax -3.98072 1.52779 -4.30638
lowerneck -5.56802 10.1314 4.3089
upperneck 7.2181 14.4892 -14.7466
head 4.4981 6.64357 -4.26805
rclavicle 1.28216e-014 -9.00495e-014
rhumerus -33.4197 13.6821 -82.4542
rradius 81.6885
rwrist 3.48547
rhand -13.7329 -38.351
rfingers 7.12502
rthumb 12.3866 -67.964
lclavicle 1.28216e-014 -9.00495e-014
lhumerus -51.2142 -0.627883 64.7635
lradius 60.4829
lwrist -0.622891
lhand -48.0689 -9.16011
lfingers 7.12502
lthumb -20.7346 19.7522
rfemur -40.3209 7.24019 22.4606
rtibia 40.9451
rfoot -17.1548 -4.92293
rtoes 17.5105
lfemur -52.4201 -16.4935 11.9767
ltibia 52.3164
lfoot 11.3223 -1.33223
ltoes -3.79608
500
root 20.3556 15.5944 -3.41676 227.969 -86.7431 -210.865
lowerback 30.8417 5.25293 -3.39491
upperback 11.1028 4.05309 -4.25525
thorax -4.19039 1.50207 -4.10501
lowerneck -5.15145 10.1343 4.52189
upperneck 7.0747 14.4557 -14.7275
head 4.39401 6.65947 -4.32147
rclavicle 1.47101e-014 -5.51627e-015
rhumerus -34.205 12.595 -81.8453
rradius 81.3776
rwrist 3.71943
rhand -13.8666 -38.4431
rfingers 7.12502
rthumb 12.2577 -68.0639
lclavicle 1.47101e-014 -5.51627e-015
lhumerus -51.208 -0.468062 64.7707
lradius 60.7466
lwrist -0.196382
lhand -47.7665 -8.73752
lfingers 7.12502
lthumb -20.4441 20.2062
rfemur -39.5457 7.08754 22.7872
rtibia 40.5741
rfoot -17.1996 -5.19302
rtoes 17.8211
lfemur -53.0358 -16.8676 12.222
ltibia 53.3457
lfoot 11.55 -2.07813
ltoes -2.58386
